<svg width="40" height="40" viewBox="0 0 40 40" fill="none" xmlns="http://www.w3.org/2000/svg">
<g clip-path="url(#clip0_8_75)">
<path d="M0 20C0 8.96168 8.96168 0 20 0C31.0383 0 40 8.96168 40 20C40 31.0383 31.0383 40 20 40C8.96168 40 0 31.0383 0 20Z" fill="url(#paint0_radial_8_75)"/>
<path d="M0 20C11.6166 25.7334 16.2166 22.3334 20 20C23.4166 17.6333 32.3166 15.7333 40 20C40 31.0383 31.0383 40 20 40C8.96168 40 0 31.0383 0 20Z" fill="#24B3DF"/>
<path d="M40 20C28.3834 25.7334 23.7834 22.3334 20 20C16.5834 17.6333 7.68336 15.7333 0 20C0 31.0383 8.96168 40 20 40C31.0383 40 40 31.0383 40 20Z" fill="#0D96BF"/>
<path d="M40 20C28.3834 25.7334 23.7834 22.3334 20 20C16.5834 17.6333 7.68336 15.7333 0 20C0 31.0383 8.96168 40 20 40C31.0383 40 40 31.0383 40 20Z" fill="#0D96BF"/>
<path d="M37.9 28.9C26.2834 34.6334 23.7834 29.5334 20 27.2C16.5834 24.8334 7.68336 15.7334 0 20C0 31.0383 8.96168 40 20 40C30.8166 39.6334 36.1166 31.9334 37.9 28.9Z" fill="#0689B0"/>
</g>
<defs>
<radialGradient id="paint0_radial_8_75" cx="0" cy="0" r="1" gradientUnits="userSpaceOnUse" gradientTransform="translate(20 20) rotate(-0.690831) scale(22.1183 19.9985)">
<stop offset="0.0166667" stop-color="#CBF3FF"/>
<stop offset="1" stop-color="#5FDAFF"/>
</radialGradient>
<clipPath id="clip0_8_75">
<rect width="40" height="40" fill="white"/>
</clipPath>
</defs>
</svg>
